<svg xmlns="http://www.w3.org/2000/svg" width="1407.708" height="946.118" viewBox="0 0 1407.708 946.118">
  <path id="black" d="M384.143,112.765,330.416,94.752A240.764,240.764,0,0,0,448.589,36.773a243.639,243.639,0,0,0,80.22-180.732,243.636,243.636,0,0,0-80.217-180.73,239.453,239.453,0,0,0-157.681-61.763l-272.327-.023v16.763H47.373V542.879H18.585v16.763H170.378V542.879H141.616L143.01,247.69c0-79.667,63.086-145.307,141.535-148.393l146.83,443.583H405.8v16.763H557.6V542.879H526.482ZM141.586,177.906V-369.71l149.225.021a145.719,145.719,0,0,1,94.929,37.568A148.526,148.526,0,0,1,434.6-224.165v160.3A148.6,148.6,0,0,1,385.737,44.2c-26.745,24.136-60.514,37.7-95.1,38.207l-.336,0C225.556,82.417,168.03,120.844,141.586,177.906ZM729.833,542.875H701.047v16.763H883.641l.464-16.407-6.011-.342c-73.694-4.2-131.454-65.378-131.5-139.281V-322.5l272.16,882.14h94.989l-41.309-133.893L1303.286-322.5V542.879H1274.5v16.763h151.8V542.879H1397.5V-369.713h28.794v-16.763h-120.81L1063.665,397.318,821.847-386.476h-120.8v16.763h28.789Z" transform="translate(-18.585 386.476)"/>
</svg>
