<svg xmlns="http://www.w3.org/2000/svg" width="1407.708" height="946.118" viewBox="0 0 1407.708 946.118">
  <path id="gray" d="M400.558-228.586,346.831-246.6A240.763,240.763,0,0,0,465-304.577a243.639,243.639,0,0,0,80.22-180.732,243.636,243.636,0,0,0-80.217-180.73A239.453,239.453,0,0,0,307.327-727.8L35-727.825v16.763H63.788V201.529H35v16.763H186.793V201.529H158.031l1.395-295.189c0-79.667,63.086-145.307,141.535-148.393l146.83,443.583H422.22v16.763H574.014V201.529H542.9ZM158-163.445V-711.061l149.225.021a145.719,145.719,0,0,1,94.929,37.568,148.526,148.526,0,0,1,48.856,107.957v160.3a148.6,148.6,0,0,1-48.859,108.073c-26.745,24.136-60.514,37.7-95.1,38.207l-.336,0C241.971-258.933,184.445-220.506,158-163.445ZM746.248,201.524H717.462v16.763H900.056l.464-16.407-6.011-.342c-73.693-4.2-131.454-65.378-131.5-139.281V-663.848l272.159,882.14h94.989L1088.852,84.4,1319.7-663.847V201.529h-28.789v16.763h151.8V201.529h-28.793V-711.063h28.793v-16.763H1321.9L1080.079,55.968,838.262-727.826H717.46v16.763h28.789Z" transform="translate(-35 727.826)" fill="#848d9e" opacity="0.31"/>
</svg>
