<svg xmlns="http://www.w3.org/2000/svg" xmlns:xlink="http://www.w3.org/1999/xlink" viewBox="0,0,256,256" width="400px" height="400px" fill-rule="nonzero"><g fill="none" fill-rule="nonzero" stroke="none" stroke-width="1" stroke-linecap="butt" stroke-linejoin="miter" stroke-miterlimit="10" stroke-dasharray="" stroke-dashoffset="0" font-family="none" font-weight="none" font-size="none" text-anchor="none" style="mix-blend-mode: normal"><g transform="scale(2.56,2.56)"><g><circle cx="14" cy="29" r="2" fill="#337ed3"></circle><circle cx="78" cy="13" r="1" fill-opacity="0" fill="#fbcd59"></circle><circle cx="51" cy="50" r="37" fill="#0080ef"></circle><circle cx="84" cy="15" r="4" fill-opacity="0" fill="#fbcd59"></circle><circle cx="88" cy="24" r="2" fill="#337ed3"></circle><circle cx="82" cy="76" r="2" fill="#f3b657"></circle><circle cx="16" cy="63" r="4" fill="#f3b657"></circle><circle cx="26" cy="87" r="2" fill="#337ed3"></circle><circle cx="20.5" cy="54.5" r="2.5" fill="#ffffff"></circle><circle cx="22" cy="67" r="1" fill-opacity="0" fill="#fbcd59"></circle><circle cx="81" cy="34" r="1" fill="#ffffff"></circle><path d="M66.719,73h-31.438c-4.021,0 -7.281,-3.26 -7.281,-7.281v-31.438c0,-4.021 3.26,-7.281 7.281,-7.281h31.438c4.021,0 7.281,3.26 7.281,7.281v31.438c0,4.021 -3.26,7.281 -7.281,7.281z" fill="#0080ef"></path><path d="M28,65.719c0,1.064 0.234,2.072 0.644,2.983c6.095,2.066 13.652,3.298 21.856,3.298c8.734,0 16.74,-1.394 23.023,-3.707c0.303,-0.801 0.477,-1.667 0.477,-2.574v-22.84c-6.35,-2.419 -14.546,-3.879 -23.5,-3.879c-8.492,0 -16.299,1.314 -22.5,3.513z" fill="#1fb0f7"></path><path d="M28,65.719c0,4.021 3.26,7.281 7.281,7.281h31.438c4.021,0 7.281,-3.26 7.281,-7.281v-7.84c-6.35,-2.419 -14.546,-3.879 -23.5,-3.879c-8.492,0 -16.299,1.314 -22.5,3.513z" fill="#1dc4fa"></path><path d="M67.719,27.4c3.243,0 5.881,2.638 5.881,5.881v33.438c0,3.243 -2.638,5.881 -5.881,5.881h-33.438c-3.243,0 -5.881,-2.638 -5.881,-5.881v-33.438c0,-3.243 2.638,-5.881 5.881,-5.881h33.438M67.719,26h-33.438c-4.021,0 -7.281,3.26 -7.281,7.281v33.438c0,4.021 3.26,7.281 7.281,7.281h33.438c4.021,0 7.281,-3.26 7.281,-7.281v-33.438c0,-4.021 -3.26,-7.281 -7.281,-7.281z" fill="#001223"></path><path d="M31.5,40.167c-0.276,0 -0.5,-0.224 -0.5,-0.5v-4.333c0,-2.941 2.393,-5.334 5.333,-5.334h14c0.276,0 0.5,0.224 0.5,0.5c0,0.276 -0.224,0.5 -0.5,0.5h-14c-2.389,0 -4.333,1.944 -4.333,4.333v4.333c0,0.277 -0.224,0.501 -0.5,0.501z" fill="#001223"></path><path d="M42.583,70h-6.25c-2.94,0 -5.333,-2.393 -5.333,-5.333v-20.334c0,-0.276 0.224,-0.5 0.5,-0.5c0.276,0 0.5,0.224 0.5,0.5v20.333c0,2.39 1.944,4.334 4.333,4.334h6.25c0.276,0 0.5,0.224 0.5,0.5c0,0.276 -0.223,0.5 -0.5,0.5z" fill="#001223"></path><g fill="#001223"><path d="M65.667,70h-19.75c-0.276,0 -0.5,-0.224 -0.5,-0.5c0,-0.276 0.224,-0.5 0.5,-0.5h19.75c2.389,0 4.333,-1.944 4.333,-4.333v-5.083c0,-0.276 0.224,-0.5 0.5,-0.5c0.276,0 0.5,0.224 0.5,0.5v5.083c0,2.94 -2.393,5.333 -5.333,5.333z"></path></g><g fill="#001223"><path d="M70.5,56.167c-0.276,0 -0.5,-0.224 -0.5,-0.5v-20.334c0,-2.389 -1.944,-4.333 -4.333,-4.333h-2.75c-0.276,0 -0.5,-0.224 -0.5,-0.5c0,-0.276 0.224,-0.5 0.5,-0.5h2.75c2.94,0 5.333,2.393 5.333,5.333v20.333c0,0.277 -0.224,0.501 -0.5,0.501z"></path></g><g fill="#001223"><path d="M59.5,31h-6.25c-0.276,0 -0.5,-0.224 -0.5,-0.5c0,-0.276 0.224,-0.5 0.5,-0.5h6.25c0.276,0 0.5,0.224 0.5,0.5c0,0.276 -0.224,0.5 -0.5,0.5z"></path></g><g fill="#f3b657"><path d="M35.554,44.625c0.032,-0.255 0.077,-0.505 0.135,-0.75c0.733,-3.082 3.504,-5.375 6.81,-5.375c3.866,0 7,3.134 7,7c0,3.866 -3.134,7 -7,7c-3.866,0 -7,-3.134 -7,-7c0.001,-0.296 0.019,-0.588 0.055,-0.875"></path></g><g fill="#ffffff"><path d="M60.531,47c-0.716,0 -1.406,0.113 -2.055,0.322c-0.553,-3.581 -3.576,-6.322 -7.233,-6.322c-4.05,0 -7.333,3.358 -7.333,7.5c0,0.281 0.018,0.558 0.047,0.831c-2.301,0.811 -3.957,3.04 -3.957,5.669c0,3.313 2.626,6 5.866,6h14.665c3.78,0 6.844,-3.134 6.844,-7c0,-3.866 -3.064,-7 -6.844,-7z"></path></g><g fill="#fbc674"><path d="M40.75,52.242c0.604,0.17 1.238,0.268 1.897,0.268c3.854,0 6.978,-3.125 6.978,-6.979c0,-1.395 -0.414,-2.691 -1.118,-3.781c-2.648,0.959 -4.547,3.536 -4.547,6.573c0,0.262 0.017,0.519 0.044,0.773c-1.48,0.521 -2.658,1.679 -3.254,3.146z"></path></g><g fill="#001223"><path d="M57.612,61.125h-4.822c-0.276,0 -0.5,-0.224 -0.5,-0.5c0,-0.276 0.224,-0.5 0.5,-0.5h4.822c0.276,0 0.5,0.224 0.5,0.5c0,0.276 -0.224,0.5 -0.5,0.5z"></path></g><g fill="#001223"><path d="M42.5,52.75c-3.998,0 -7.25,-3.252 -7.25,-7.25c0,-0.138 0.112,-0.25 0.25,-0.25c0.138,0 0.25,0.112 0.25,0.25c0,3.722 3.028,6.75 6.75,6.75c3.722,0 6.75,-3.028 6.75,-6.75c0,-3.722 -3.028,-6.75 -6.75,-6.75c-1.012,0 -1.986,0.219 -2.893,0.65c-0.125,0.059 -0.274,0.006 -0.333,-0.118c-0.06,-0.125 -0.006,-0.274 0.118,-0.333c0.975,-0.463 2.02,-0.698 3.107,-0.698c3.998,0 7.25,3.252 7.25,7.25c0,3.998 -3.251,7.249 -7.249,7.249z"></path></g><g fill="#001223"><path d="M35.79,43.75c-0.023,0 -0.047,-0.003 -0.071,-0.01c-0.132,-0.039 -0.208,-0.179 -0.168,-0.311c0.387,-1.3 1.132,-2.464 2.154,-3.366c0.104,-0.091 0.262,-0.082 0.353,0.022c0.091,0.104 0.082,0.262 -0.022,0.353c-0.952,0.84 -1.646,1.924 -2.006,3.134c-0.032,0.108 -0.132,0.178 -0.24,0.178z"></path></g><g fill="#001223"><path d="M60.625,61.125h-1.085c-0.276,0 -0.5,-0.224 -0.5,-0.5c0,-0.276 0.224,-0.5 0.5,-0.5h1.085c3.446,0 6.25,-2.798 6.25,-6.238c0,-3.439 -2.804,-6.238 -6.25,-6.238c-0.639,0 -1.27,0.096 -1.876,0.287c-0.14,0.044 -0.29,0.025 -0.413,-0.052c-0.124,-0.077 -0.208,-0.203 -0.23,-0.347c-0.521,-3.281 -3.313,-5.663 -6.641,-5.663c-3.712,0 -6.732,3.014 -6.732,6.719c0,0.252 0.017,0.5 0.044,0.745c0.025,0.232 -0.114,0.451 -0.334,0.527c-2.133,0.733 -3.566,2.736 -3.566,4.984c0,2.909 2.371,5.275 5.286,5.275h4.581c0.276,0 0.5,0.224 0.5,0.5c0,0.276 -0.224,0.5 -0.5,0.5h-4.581c-3.466,0 -6.286,-2.815 -6.286,-6.275c0,-2.543 1.541,-4.822 3.873,-5.79c-0.01,-0.154 -0.016,-0.31 -0.016,-0.467c0,-4.256 3.469,-7.719 7.732,-7.719c3.636,0 6.715,2.475 7.522,5.961c0.536,-0.124 1.085,-0.186 1.639,-0.186c3.998,0 7.25,3.247 7.25,7.238c-0.002,3.992 -3.254,7.239 -7.252,7.239z"></path></g></g></g></g></svg>