<svg xmlns="http://www.w3.org/2000/svg"  viewBox="0 0 100 100" width="400px" height="400px"><path fill="#3070b7" stroke="#78a2d2" stroke-miterlimit="10" d="M70,18.988H31c-6.6,0-12,5.4-12,12v39c0,6.6,5.4,12,12,12h39 c6.6,0,12-5.4,12-12v-39C82,24.388,76.6,18.988,70,18.988z"/><path fill="#3a83c1" d="M70,81.988H31c-6.6,0-12-5.4-12-12V57.487c4.141-4.02,9.787-6.499,16.014-6.499h31 c6.213,0,11.847,2.468,15.986,6.472v12.528C82,76.588,76.6,81.988,70,81.988z"/><path fill="#40a6dd" d="M70,81.988H31c-6.6,0-12-5.4-12-12v-4.501c4.141-4.02,9.787-6.499,16.014-6.499h31 c6.213,0,11.847,2.468,15.986,6.472v4.528C82,76.588,76.6,81.988,70,81.988z"/><path fill="#31c4f3" d="M70,81.988H31c-5.528,0-10.201-3.794-11.578-8.903c4.099-3.783,9.574-6.096,15.592-6.096h31 c6.006,0,11.472,2.304,15.569,6.074C80.215,78.183,75.536,81.988,70,81.988z"/><path fill="#1f212b" d="M70,82.988H31c-7.18,0-13-5.82-13-13v-39c0-7.18,5.82-13,13-13h39c7.18,0,13,5.82,13,13v39 C83,77.168,77.179,82.988,70,82.988z M20,30.988v39c0,6.075,4.925,11,11,11h39c6.075,0,11-4.925,11-11v-39c0-6.075-4.925-11-11-11 H31C24.924,19.988,20,24.913,20,30.988z"/><path fill="#1f212b" d="M67.162,77.988H33.837C27.852,77.988,23,73.136,23,67.151V33.825 c0-5.985,4.852-10.837,10.837-10.837H67.5c0.276,0,0.5,0.224,0.5,0.5s-0.224,0.5-0.5,0.5H33.837c-5.433,0-9.837,4.404-9.837,9.837 V67.15c0,5.433,4.405,9.838,9.838,9.838h33.325c5.433,0,9.837-4.404,9.837-9.837V48.488c0-0.276,0.224-0.5,0.5-0.5 s0.5,0.224,0.5,0.5V67.15C78,73.136,73.147,77.988,67.162,77.988z M77.5,45.567c-0.276,0-0.5-0.224-0.5-0.5v-4 c0-0.276,0.224-0.5,0.5-0.5s0.5,0.224,0.5,0.5v4C78,45.344,77.776,45.567,77.5,45.567z M77.5,39.567c-0.276,0-0.5-0.224-0.5-0.5v-2 c0-0.276,0.224-0.5,0.5-0.5s0.5,0.224,0.5,0.5v2C78,39.344,77.776,39.567,77.5,39.567z"/><circle cx="38" cy="45" r="8.5" fill="#f9e65c"/><circle cx="38" cy="45" r="8.5" fill="none" stroke="#1f212b" stroke-linecap="round" stroke-linejoin="round" stroke-miterlimit="10"/><path fill="#fff" d="M62,45.5c-1.556,0-3.02,0.381-4.316,1.044C56.151,42.99,52.617,40.5,48.5,40.5 c-5.523,0-10,4.477-10,10c0,0.027,0.004,0.052,0.004,0.079C35.111,51.064,32.5,53.973,32.5,57.5c0,3.866,3.134,7,7,7 c2.922,0,18.75,0,22.5,0c5.247,0,9.5-4.253,9.5-9.5S67.247,45.5,62,45.5z"/><path fill="none" stroke="#1f212b" stroke-linecap="round" stroke-linejoin="round" stroke-miterlimit="10" d="M62,45.5 c-1.556,0-3.02,0.381-4.316,1.044C56.151,42.99,52.617,40.5,48.5,40.5c-5.523,0-10,4.477-10,10c0,0.027,0.004,0.052,0.004,0.079 C35.111,51.064,32.5,53.973,32.5,57.5c0,3.866,3.134,7,7,7c2.922,0,18.75,0,22.5,0c5.247,0,9.5-4.253,9.5-9.5S67.247,45.5,62,45.5z"/></svg>